#!OML:ASF Y:\EmotionMaleHayes\Project 1\Capture day 1\Session 1\Male1.ASF
:FULLY-SPECIFIED
:DEGREES
570
root -7.56382 16.8363 18.3809 56.058 79.7026 61.4951
lowerback 5.44384 3.18924 -11.3326
upperback 1.39986 3.71095 -4.43565
thorax -1.99464 1.96663 1.41931
lowerneck -21.8712 2.13348 2.85241
upperneck 21.9246 1.95758 0.662914
head 10.7009 1.26909 0.0779145
rclavicle 1.43125e-014 2.46493e-014
rhumerus -39.4295 14.1506 -95.1778
rradius 36.2131
rwrist 2.44709
rhand -6.60336 -32.8644
rfingers 7.12502
rthumb 19.2523 -61.9314
lclavicle 1.43125e-014 2.46493e-014
lhumerus -31.0814 -6.77653 85.9488
lradius 30.9957
lwrist -8.01257
lhand -16.1686 -23.5903
lfingers 7.12502
lthumb 10.0375 6.15031
rfemur 9.42975 -3.87991 3.51477
rtibia 53.252
rfoot 9.1764 -7.21745
rtoes 27.5945
lfemur 4.59423 15.2376 -29.9475
ltibia 2.83652
lfoot -4.3116 -2.16734
ltoes 14.6199
571
root -7.45488 16.8386 18.3741 57.1335 79.3847 62.6197
lowerback 5.38633 3.11187 -11.7229
upperback 1.47768 3.611 -4.52536
thorax -1.88468 1.91492 1.55201
lowerneck -22.0344 2.28714 3.08246
upperneck 22.0712 2.11188 0.573439
head 10.7915 1.34908 0.034828
rclavicle 1.27471e-014 3.81667e-014
rhumerus -39.7752 13.1201 -94.7551
rradius 35.9265
rwrist 2.62651
rhand -6.70778 -32.7604
rfingers 7.12502
rthumb 19.1518 -61.8374
lclavicle 1.27471e-014 3.81667e-014
lhumerus -30.3638 -7.74513 86.0442
lradius 31.4029
lwrist -7.40766
lhand -16.1843 -23.5458
lfingers 7.12502
lthumb 10.0223 6.19554
rfemur 8.08912 -4.05953 2.93414
rtibia 54.6562
rfoot 8.55656 -5.62138
rtoes 26.8343
lfemur 5.10616 15.2532 -30.2959
ltibia 2.77175
lfoot -4.53978 -2.23094
ltoes 14.6181
572
root -7.35205 16.8437 18.3635 58.298 78.8964 63.8487
lowerback 5.39681 3.06513 -12.2479
upperback 1.50488 3.53055 -4.65897
thorax -1.87154 1.8798 1.70295
lowerneck -22.1375 2.401 3.42033
upperneck 22.2634 2.21091 0.356211
head 10.891 1.39798 -0.0810221
rclavicle 1.06723e-014 7.4743e-014
rhumerus -40.1451 12.22 -94.4046
rradius 35.4593
rwrist 2.70895
rhand -6.93177 -33.0495
rfingers 7.12502
rthumb 18.9364 -62.1477
lclavicle 1.06723e-014 7.4743e-014
lhumerus -29.8429 -8.7551 86.1364
lradius 31.9898
lwrist -6.76794
lhand -16.1721 -23.6608
lfingers 7.12502
lthumb 10.0341 6.07997
rfemur 6.65775 -4.19101 2.15853
rtibia 56.0569
rfoot 7.99594 -4.23382
rtoes 26.1221
lfemur 5.54472 15.4668 -30.8783
ltibia 2.80711
lfoot -4.85594 -2.43298
ltoes 15.1721
573
root -7.21711 16.8591 18.3464 63.0047 78.5037 68.7882
lowerback 5.37205 2.78061 -12.9042
upperback 1.5763 3.14568 -4.8598
thorax -1.75324 1.69072 1.88441
lowerneck -21.9272 2.39622 3.40177
upperneck 22.3466 2.2015 0.44768
head 10.8811 1.40725 -0.0476727
rclavicle 4.23101e-014 -2.94201e-014
rhumerus -40.5087 11.4433 -94.12
rradius 34.6581
rwrist 2.8031
rhand -7.20621 -33.2416
rfingers 7.12502
rthumb 18.6725 -62.3654
lclavicle 4.23101e-014 -2.94201e-014
lhumerus -29.5103 -9.47626 86.2347
lradius 32.5252
lwrist -6.33239
lhand -16.1387 -23.6438
lfingers 7.12502
lthumb 10.0664 6.09545
rfemur 6.02407 -4.87435 0.909865
rtibia 56.8014
rfoot 7.24318 -2.84486
rtoes 24.8308
lfemur 6.36119 15.399 -31.7386
ltibia 2.66507
lfoot -5.0239 -3.02994
ltoes 14.8166
574
root -7.10746 16.8672 18.3337 66.1007 77.9609 71.8847
lowerback 5.51525 2.59838 -13.6162
upperback 1.46015 2.8367 -5.02266
thorax -1.9375 1.55904 2.11173
lowerneck -21.8358 2.49285 3.30616
upperneck 22.4896 2.32775 0.642927
head 10.9152 1.48515 0.0591846
rclavicle -1.10636e-014 4.05521e-014
rhumerus -40.9574 10.603 -93.6951
rradius 33.991
rwrist 3.08211
rhand -7.67557 -32.7072
rfingers 7.12502
rthumb 18.221 -61.8738
lclavicle -1.10636e-014 4.05521e-014
lhumerus -29.1935 -10.1658 86.3683
lradius 32.9623
lwrist -5.8446
lhand -16.3469 -23.6343
lfingers 7.12502
lthumb 9.86552 6.11459
rfemur 4.77892 -5.39172 -0.166649
rtibia 57.7396
rfoot 6.54238 -1.66631
rtoes 23.5575
lfemur 6.69007 15.3785 -32.6454
ltibia 2.75442
lfoot -5.30521 -3.45125
ltoes 13.5979
575
root -6.98202 16.8804 18.3277 73.1693 77.9265 79.0979
lowerback 5.37229 2.00706 -14.1712
upperback 1.73182 2.09901 -5.06282
thorax -1.47819 1.16724 2.44498
lowerneck -22.0663 2.5987 3.55969
upperneck 22.7178 2.47181 0.298029
head 11.0541 1.52982 -0.0803548
rclavicle 8.83971e-015 3.4191e-014
rhumerus -41.1115 9.95531 -93.1596
rradius 33.4875
rwrist 3.45934
rhand -8.04367 -32.2757
rfingers 7.12502
rthumb 17.8668 -61.475
lclavicle 8.83971e-015 3.4191e-014
lhumerus -28.3283 -10.6803 86.3829
lradius 33.066
lwrist -5.51605
lhand -16.6652 -23.9473
lfingers 7.12502
lthumb 9.55835 5.81592
rfemur 4.38817 -6.61939 -1.00512
rtibia 58.2415
rfoot 5.61251 -1.25397
rtoes 24.2842
lfemur 7.22385 14.5982 -33.2307
ltibia 3.05453
lfoot -5.64656 -4.19478
ltoes 12.9281
576
root -6.88638 16.8806 18.3192 70.1764 77.2379 75.9683
lowerback 5.1242 2.14996 -14.7093
upperback 1.68185 2.30706 -5.12542
thorax -1.43594 1.27213 2.65808
lowerneck -22.0693 2.79413 3.70095
upperneck 22.6701 2.70961 0.246839
head 11.0443 1.64216 -0.084821
rclavicle 1.30452e-016 -3.65764e-014
rhumerus -41.4134 9.25366 -92.6775
rradius 32.917
rwrist 3.7735
rhand -8.1072 -32.1286
rfingers 7.12502
rthumb 17.8057 -61.3334
lclavicle 1.30452e-016 -3.65764e-014
lhumerus -27.4833 -11.2586 86.3572
lradius 32.9202
lwrist -5.2115
lhand -16.6655 -24.1519
lfingers 7.12502
lthumb 9.55813 5.61133
rfemur 2.25571 -5.95706 -1.41159
rtibia 59.6405
rfoot 4.51615 -0.679909
rtoes 25.1972
lfemur 7.48722 14.7446 -33.885
ltibia 2.80585
lfoot -6.13658 -3.66085
ltoes 13.2272
577
root -6.77753 16.8864 18.3094 71.2457 76.9695 77.0682
lowerback 4.89008 1.98492 -14.9583
upperback 1.80459 2.14824 -5.21197
thorax -1.15045 1.1761 2.72449
lowerneck -21.9206 2.90965 3.69481
upperneck 22.5507 2.84507 0.379049
head 10.9723 1.71925 -0.0173279
rclavicle 5.00068e-015 -1.03368e-014
rhumerus -41.6007 8.33815 -92.1593
rradius 32.3619
rwrist 4.10548
rhand -8.16157 -32.0926
rfingers 7.12502
rthumb 17.7534 -61.3021
lclavicle 5.00068e-015 -1.03368e-014
lhumerus -26.7598 -11.861 86.2364
lradius 33.1641
lwrist -4.92143
lhand -16.5526 -24.0549
lfingers 7.12502
lthumb 9.66707 5.70324
rfemur 0.89423 -6.12933 -1.79804
rtibia 60.6151
rfoot 3.20527 -0.199998
rtoes 23.9064
lfemur 7.97226 14.6478 -34.2764
ltibia 2.69203
lfoot -6.38981 -3.76869
ltoes 13.0136
578
root -6.66747 16.8933 18.3054 72.8793 76.9477 78.7257
lowerback 5.4222 1.86215 -15.0676
upperback 1.47378 1.8264 -5.23887
thorax -1.75627 1.06581 2.75277
lowerneck -21.6664 2.94849 3.71751
upperneck 22.838 2.88724 0.493501
head 11.0312 1.76341 0.027226
rclavicle -1.61978e-015 4.13472e-014
rhumerus -42.5266 7.27303 -91.6674
rradius 31.9379
rwrist 4.54833
rhand -8.39689 -31.8611
rfingers 7.12502
rthumb 17.5269 -61.091
lclavicle -1.61978e-015 4.13472e-014
lhumerus -26.9839 -12.2805 86.2121
lradius 33.9683
lwrist -5.00298
lhand -16.5749 -23.9577
lfingers 7.12502
lthumb 9.6455 5.80149
rfemur -0.304059 -6.42846 -1.88204
rtibia 61.2737
rfoot 1.92377 0.066912
rtoes 21.664
lfemur 8.46583 14.5192 -34.3569
ltibia 2.65054
lfoot -6.61769 -4.07534
ltoes 12.014
579
root -6.56585 16.8997 18.2987 72.8487 76.9496 78.6662
lowerback 5.33028 1.74509 -15.2137
upperback 1.57196 1.69178 -5.09078
thorax -1.58584 0.982864 3.00339
lowerneck -21.8617 3.11923 3.73297
upperneck 22.9242 3.14601 0.362973
head 11.1068 1.86412 0.0219004
rclavicle 4.15895e-015 -1.03368e-014
rhumerus -42.7497 6.77849 -91.0623
rradius 31.5286
rwrist 4.75231
rhand -8.69989 -31.3192
rfingers 7.12502
rthumb 17.2353 -60.5749
lclavicle 4.15895e-015 -1.03368e-014
lhumerus -26.4458 -12.2444 86.1426
lradius 34.6854
lwrist -5.18554
lhand -16.9013 -24.0382
lfingers 7.12502
lthumb 9.33062 5.73531
rfemur -1.71498 -6.35784 -1.74618
rtibia 61.7199
rfoot 0.985366 0.0986842
rtoes 20.161
lfemur 8.89004 14.3975 -34.356
ltibia 2.52955
lfoot -6.93497 -4.04565
ltoes 11.5487
580
root -6.45996 16.907 18.292 72.8283 76.8342 78.699
lowerback 5.29903 1.668 -15.398
upperback 1.62069 1.59216 -5.01379
thorax -1.50541 0.926101 3.19299
lowerneck -21.8915 3.18496 3.73888
upperneck 23.0331 3.27817 0.212555
head 11.1582 1.90596 -0.0111801
rclavicle 7.11898e-015 -7.79236e-014
rhumerus -43.1147 6.19352 -90.4836
rradius 31.2298
rwrist 4.73057
rhand -8.74765 -31.2944
rfingers 7.12502
rthumb 17.1893 -60.5541
lclavicle 7.11898e-015 -7.79236e-014
lhumerus -25.4863 -13.1333 86.2505
lradius 34.1045
lwrist -4.61121
lhand -16.8512 -23.8367
lfingers 7.12502
lthumb 9.37895 5.9346
rfemur -2.94282 -6.21038 -1.77392
rtibia 61.883
rfoot -0.126535 0.295296
rtoes 18.5449
lfemur 9.38544 14.2941 -34.5029
ltibia 2.43998
lfoot -7.25669 -3.98269
ltoes 11.1533
581
root -6.35876 16.912 18.2958 77.3972 77.0689 83.3996
lowerback 5.68668 1.279 -15.5278
upperback 1.5492 0.980121 -4.91368
thorax -1.70053 0.638426 3.40603
lowerneck -21.7698 3.33802 4.0588
upperneck 23.1467 3.47934 -0.0948517
head 11.1947 1.98848 -0.144182
rclavicle 4.05956e-015 7.15625e-015
rhumerus -43.82 5.51859 -89.9189
rradius 31.057
rwrist 4.65866
rhand -8.56767 -31.6979
rfingers 7.12502
rthumb 17.3626 -60.9424
lclavicle 4.05956e-015 7.15625e-015
lhumerus -25.1325 -13.5199 86.2798
lradius 34.1304
lwrist -4.53843
lhand -16.6622 -23.8938
lfingers 7.12502
lthumb 9.56127 5.86928
rfemur -3.60165 -6.91588 -1.70439
rtibia 61.872
rfoot -1.16883 0.236008
rtoes 18.5387
lfemur 9.85528 13.4836 -34.5054
ltibia 2.666
lfoot -7.46988 -4.27493
ltoes 11.4053
582
root -6.2604 16.912 18.2996 77.028 77.0944 82.9464
lowerback 5.99793 1.26136 -15.654
upperback 1.23155 0.834132 -4.80238
thorax -2.19677 0.607941 3.59229
lowerneck -21.6329 3.37277 4.34414
upperneck 23.5968 3.56592 -0.488732
head 11.3544 2.01148 -0.318677
rclavicle -1.10388e-014 -3.65764e-014
rhumerus -44.8614 4.98438 -89.4173
rradius 31.056
rwrist 4.36353
rhand -8.52014 -32.0229
rfingers 7.12502
rthumb 17.4083 -61.2633
lclavicle -1.10388e-014 -3.65764e-014
lhumerus -25.0625 -13.7839 86.3019
lradius 34.3557
lwrist -4.45713
lhand -16.3124 -24.104
lfingers 7.12502
lthumb 9.89873 5.64333
rfemur -5.14457 -6.62979 -1.36029
rtibia 62.3619
rfoot -2.69507 0.66333
rtoes 17.8011
lfemur 10.1699 13.1235 -34.5332
ltibia 2.54802
lfoot -7.89479 -3.85163
ltoes 12.1258
583
root -6.15314 16.9175 18.299 76.4915 76.9575 82.4029
lowerback 5.68868 1.18064 -15.9141
upperback 1.44197 0.807095 -4.7294
thorax -1.79336 0.560911 3.81997
lowerneck -21.8877 3.51972 4.38466
upperneck 23.512 3.76923 -0.607748
head 11.3798 2.08574 -0.333285
rclavicle 7.74173e-015 4.77083e-014
rhumerus -44.9692 4.59231 -88.8684
rradius 30.8263
rwrist 4.12877
rhand -8.6824 -32.2171
rfingers 7.12502
rthumb 17.2521 -61.4714
lclavicle 7.74173e-015 4.77083e-014
lhumerus -24.1955 -14.3462 86.1738
lradius 34.5715
lwrist -3.94167
lhand -16.3421 -24.1867
lfingers 7.12502
lthumb 9.87014 5.56198
rfemur -6.49026 -6.27877 -1.25444
rtibia 62.0484
rfoot -3.66021 0.835174
rtoes 14.2106
lfemur 10.6492 13.1206 -34.6535
ltibia 2.30945
lfoot -8.22481 -3.66004
ltoes 11.8825
